<?xml version="1.0" standalone="no"?>
<!DOCTYPE svg PUBLIC "-//W3C//DTD SVG 20010904//EN"
 "http://www.w3.org/TR/2001/REC-SVG-20010904/DTD/svg10.dtd">
<svg version="1.0" xmlns="http://www.w3.org/2000/svg"
 width="900.000000pt" height="507.000000pt" viewBox="0 0 900.000000 507.000000"
 preserveAspectRatio="xMidYMid meet">
<metadata>
Created by potrace 1.10, written by Peter Selinger 2001-2011
</metadata>
<g transform="translate(0.000000,507.000000) scale(0.100000,-0.100000)"
fill="#000000" stroke="none">
<path d="M0 2535 l0 -2535 2540 0 c2508 0 2540 0 2540 19 0 21 17 37 27 27 4
-4 1 -12 -5 -18 -7 -7 -12 -16 -12 -20 0 -4 333 -8 740 -8 702 0 740 1 740 18
0 10 7 28 16 40 9 13 14 32 11 44 -4 13 10 49 39 100 24 44 44 91 44 104 0 14
4 32 9 42 34 62 81 173 81 188 1 28 20 57 62 93 26 23 39 28 44 19 4 -6 2 -14
-4 -16 -16 -5 -15 -95 1 -111 10 -10 8 -15 -9 -29 -12 -9 -25 -28 -29 -42 -13
-44 -68 -144 -97 -174 -15 -17 -28 -36 -28 -43 0 -19 -49 -125 -67 -145 -15
-17 -15 -19 0 -36 10 -10 17 -26 17 -35 0 -16 39 -17 490 -17 310 0 490 4 490
10 0 6 -9 10 -20 10 -25 0 -26 15 -3 25 12 4 25 -2 40 -19 l22 -26 661 0 660
0 0 2535 0 2535 -4500 0 -4500 0 0 -2535z m3885 1981 c20 -9 48 -12 67 -9 38
8 114 8 212 1 58 -4 71 -2 85 13 16 20 70 26 87 10 5 -5 43 -11 84 -14 41 -2
89 -7 105 -11 17 -4 37 -6 45 -5 14 1 168 0 220 -1 14 -1 61 1 105 4 61 4 88
1 115 -11 50 -24 109 -24 148 -2 48 27 96 25 110 -5 11 -25 54 -39 127 -40 34
-1 40 2 37 18 -3 16 -1 18 10 9 7 -6 36 -13 63 -17 28 -4 57 -8 66 -9 8 -1 23
-10 33 -19 13 -13 28 -16 66 -12 41 5 50 2 59 -14 9 -16 18 -19 58 -14 109 12
237 7 281 -11 24 -10 57 -19 74 -21 17 -2 39 -13 50 -24 17 -17 25 -18 44 -10
20 9 34 6 77 -15 43 -22 64 -26 120 -24 55 2 71 -1 81 -16 7 -9 18 -17 23 -17
5 0 18 -8 27 -19 26 -28 93 -43 147 -33 43 8 48 7 80 -22 19 -16 39 -44 44
-61 9 -26 14 -30 43 -27 28 3 33 0 30 -15 -2 -12 2 -17 13 -15 9 1 28 -9 43
-23 15 -14 33 -25 40 -25 6 0 17 -5 24 -12 9 -9 15 -9 24 0 9 9 8 12 -4 12 -9
0 -19 4 -23 9 -3 6 16 10 47 9 38 0 48 -2 35 -9 -22 -13 -22 -35 1 -49 13 -9
13 -10 1 -7 -24 8 -38 -5 -45 -41 -6 -30 -4 -32 27 -39 19 -4 38 -6 43 -5 13
4 26 -19 26 -45 0 -24 22 -43 28 -25 2 7 22 12 44 12 40 0 40 -1 34 -30 -4
-23 0 -36 14 -50 11 -11 19 -26 17 -32 -1 -7 6 -12 15 -12 9 1 16 -5 16 -15
-1 -32 22 -70 66 -107 59 -49 67 -69 26 -61 l-30 7 22 -30 c12 -17 26 -30 30
-30 5 0 8 -6 7 -12 -4 -31 3 -47 31 -76 17 -18 30 -40 30 -51 0 -11 6 -22 13
-25 10 -5 10 -7 0 -12 -7 -3 -13 -12 -13 -20 0 -8 -7 -17 -15 -20 -8 -4 -15
-12 -15 -20 0 -8 -4 -14 -8 -14 -10 0 -82 -96 -82 -109 0 -5 -7 -11 -15 -15
-8 -3 -15 -13 -15 -23 0 -10 -7 -27 -15 -37 -8 -11 -15 -28 -15 -37 0 -10 -6
-30 -14 -46 -16 -33 -37 -112 -44 -166 -6 -50 20 -126 73 -213 23 -39 46 -82
50 -95 20 -63 65 -138 86 -141 13 -2 24 -9 27 -15 6 -21 -46 -15 -68 7 -29 29
-68 26 -76 -6 -14 -55 5 -122 52 -184 84 -110 188 -165 228 -121 36 40 54 26
114 -94 52 -102 72 -156 83 -225 l9 -55 -45 -42 c-38 -38 -50 -43 -89 -43 -39
0 -50 -6 -99 -50 -31 -28 -85 -64 -122 -81 -55 -25 -66 -33 -63 -51 2 -14 12
-24 28 -28 29 -7 66 -70 56 -96 -6 -15 -9 -14 -25 12 -10 16 -25 35 -35 43
-14 12 -18 12 -30 -4 -12 -17 -14 -16 -23 11 -6 16 -19 38 -30 49 -10 11 -30
43 -42 70 -13 28 -27 58 -32 67 -5 10 -9 24 -9 32 0 7 -11 21 -24 29 -13 9
-36 37 -51 64 -59 103 -126 149 -212 144 -29 -1 -31 -33 -3 -68 11 -14 20 -35
20 -46 0 -19 1 -19 18 -4 10 10 23 17 29 17 6 0 10 8 9 17 -1 23 34 30 49 9 8
-10 10 -44 7 -96 -3 -50 0 -85 6 -93 14 -17 27 -120 18 -143 -6 -16 -8 -16
-26 1 -11 10 -20 23 -20 29 0 7 -9 29 -20 51 -11 22 -20 52 -20 67 0 41 -18
43 -26 4 -3 -20 -12 -40 -20 -47 -10 -8 -11 -16 -3 -30 8 -16 5 -21 -16 -31
-16 -7 -22 -15 -16 -22 4 -6 11 -24 15 -41 4 -16 14 -37 21 -45 30 -33 28 -65
-7 -105 -148 -172 -176 -208 -183 -238 -4 -14 -13 -31 -21 -38 -8 -6 -14 -17
-14 -23 0 -7 -13 -25 -30 -41 -16 -16 -30 -34 -30 -39 0 -6 -28 -40 -61 -76
-34 -36 -68 -75 -76 -88 -9 -12 -26 -22 -39 -22 -17 0 -25 -7 -30 -25 -7 -29
-37 -49 -62 -41 -12 4 -22 -4 -35 -25 -15 -27 -22 -31 -47 -25 -23 4 -35 0
-56 -21 l-27 -27 -14 21 -14 21 -36 -24 c-43 -29 -49 -30 -63 -5 -9 17 -14 18
-40 9 -38 -13 -58 -5 -62 24 -2 19 -10 24 -41 26 -25 2 -40 9 -44 20 -4 9 -13
22 -21 27 -7 6 -12 23 -10 40 2 21 -1 30 -12 30 -9 0 -16 -11 -18 -30 -1 -16
-5 -45 -8 -64 l-6 -34 -24 41 c-26 44 -47 51 -79 28 -15 -10 -23 -11 -37 -2
-26 16 -23 51 7 64 29 13 33 46 8 61 -17 9 -16 11 1 30 19 21 19 22 -15 59
-19 20 -37 38 -41 40 -5 2 -8 11 -8 21 0 31 -30 61 -60 61 -20 0 -31 6 -35 21
-9 29 1 35 32 18 27 -15 156 -20 169 -6 4 4 -2 25 -14 46 -12 21 -22 53 -22
70 0 18 -9 51 -20 73 -27 57 -25 70 16 90 35 16 35 16 45 -9 5 -13 9 -28 9
-32 0 -17 30 -33 47 -26 16 6 16 8 -3 23 -19 15 -21 26 -18 75 3 52 12 95 34
152 7 18 8 18 14 3 11 -31 16 -43 25 -58 6 -8 12 -26 15 -40 3 -14 20 -49 38
-79 18 -29 39 -65 47 -80 8 -14 48 -59 90 -101 69 -68 81 -76 134 -87 66 -14
145 -3 214 29 22 10 79 57 126 103 47 47 92 85 100 85 8 0 20 13 25 29 7 19
19 31 33 33 15 2 25 12 29 28 4 16 14 26 28 28 16 3 25 12 29 33 4 22 11 29
30 29 18 0 25 7 30 31 3 17 12 33 19 36 8 3 14 14 14 24 0 12 10 23 25 29 21
8 24 14 19 34 -5 20 -2 25 16 28 28 4 26 23 -3 23 -19 0 -22 6 -24 44 -1 32
-11 58 -33 90 -35 49 -42 81 -61 296 -19 214 -11 273 32 260 27 -9 34 17 15
53 -18 34 -13 42 24 42 15 0 32 6 38 13 5 6 13 80 17 162 7 180 0 200 -79 228
-5 2 -9 18 -8 37 1 26 9 42 36 64 41 37 56 64 56 103 0 16 7 38 15 49 8 11 14
42 15 76 0 31 5 60 10 63 6 3 10 15 10 26 0 10 -4 19 -10 19 -5 0 -10 14 -10
32 0 24 -10 40 -45 72 -27 25 -45 51 -45 63 0 26 -41 73 -63 73 -26 0 -30 20
-12 54 17 32 17 33 -14 89 -17 31 -31 62 -31 70 0 34 -44 55 -126 62 l-81 7
-39 -46 c-22 -27 -47 -46 -59 -46 -11 0 -33 -12 -50 -28 -16 -15 -50 -33 -75
-39 l-45 -12 -35 39 c-37 42 -29 40 -188 42 -13 0 -38 -13 -55 -30 -19 -17
-49 -33 -71 -37 -58 -10 -78 -27 -136 -116 -8 -13 -36 -45 -62 -72 -50 -51
-62 -87 -30 -87 12 0 26 15 38 40 13 27 35 51 67 70 26 17 50 30 53 30 2 0 34
14 69 30 52 24 77 30 133 30 39 0 85 -7 105 -15 20 -8 56 -15 81 -15 25 0 48
-4 51 -10 3 -5 15 -10 27 -10 11 0 32 -6 46 -14 15 -8 47 -24 72 -36 78 -38
107 -66 125 -120 18 -54 26 -213 12 -241 -5 -11 -2 -18 12 -25 22 -10 97 -72
153 -126 51 -49 51 -85 0 -59 -9 5 -30 15 -47 22 -16 7 -47 28 -67 47 l-37 35
-36 -17 c-43 -21 -88 -14 -83 12 2 9 12 18 23 20 29 6 38 17 30 41 -4 14 -15
21 -31 21 -19 0 -24 5 -24 25 0 14 7 28 15 31 22 9 5 27 -67 74 -44 28 -73 39
-118 44 -73 9 -84 22 -25 30 49 8 52 11 30 39 -7 11 -17 48 -21 83 -7 75 -16
82 -98 88 -36 3 -60 0 -73 -9 -10 -8 -28 -15 -41 -15 -12 0 -38 -6 -57 -14
-25 -11 -43 -12 -67 -5 -44 12 -127 -12 -164 -49 -66 -64 -126 -141 -156 -200
-28 -53 -30 -64 -18 -72 10 -7 11 -13 5 -17 -36 -27 -45 -121 -20 -213 8 -30
15 -74 15 -97 0 -41 13 -63 25 -43 9 15 48 12 71 -5 10 -8 34 -15 52 -15 37 0
44 -23 13 -40 -15 -7 -23 -6 -35 6 -9 8 -16 19 -16 23 0 20 -89 -25 -109 -54
-21 -31 -21 -36 -12 -236 6 -132 15 -227 26 -269 9 -36 20 -110 24 -165 8
-102 20 -140 64 -186 30 -34 57 -76 57 -91 0 -17 -64 -68 -85 -68 -23 0 -63
-27 -116 -78 l-47 -44 -61 7 c-34 4 -64 11 -67 16 -3 5 -14 9 -25 9 -11 0 -41
16 -66 35 -25 19 -51 35 -57 35 -6 0 -42 29 -80 65 -64 62 -139 107 -196 119
-14 3 -33 11 -44 19 -17 13 -18 19 -7 83 7 38 16 96 20 129 10 68 30 115 49
115 7 0 20 -9 29 -20 26 -30 76 -26 108 8 14 15 28 36 31 47 3 11 9 29 14 40
15 33 40 144 40 175 0 27 -17 47 -65 75 -17 10 -16 15 7 85 47 142 61 214 55
292 -16 213 -71 338 -206 465 -47 44 -149 103 -179 103 -10 0 -23 5 -29 11 -6
6 -51 11 -104 12 -78 0 -108 -5 -174 -27 -150 -52 -263 -140 -347 -267 -46
-71 -84 -182 -114 -331 l-17 -88 -39 0 c-66 0 -98 -65 -105 -219 -5 -90 7
-135 39 -152 24 -13 88 -3 88 13 0 8 3 8 9 2 18 -18 25 -261 12 -464 l-6 -105
-37 -6 c-20 -3 -43 -10 -50 -16 -7 -6 -25 -13 -40 -17 -16 -3 -28 -11 -28 -16
0 -6 -7 -10 -15 -10 -8 0 -45 -29 -81 -65 -37 -36 -72 -65 -80 -65 -7 0 -15
-4 -18 -9 -3 -5 -17 -12 -32 -15 -14 -4 -42 -17 -62 -31 -39 -24 -144 -55
-191 -55 -15 0 -36 -7 -47 -15 -26 -20 -76 -19 -114 3 -25 13 -30 22 -26 42 3
16 -4 34 -20 53 -13 16 -24 35 -24 43 0 14 -31 63 -57 92 -7 7 -13 20 -13 28
0 8 -9 14 -19 14 -11 0 -22 4 -25 9 -9 14 4 41 19 41 29 0 24 21 -8 36 -37 18
-40 41 -9 77 8 9 12 20 9 23 -3 4 -2 15 4 25 8 15 4 21 -21 34 -33 17 -52 13
-43 -10 3 -10 -1 -15 -14 -15 -28 0 -54 57 -40 88 8 17 7 26 -2 31 -14 9 -13
89 2 109 7 8 5 18 -6 30 -14 15 -14 21 -1 51 22 52 17 111 -12 167 -32 61 -67
96 -97 98 -18 1 -22 7 -22 32 0 21 -4 30 -12 27 -10 -4 -13 10 -13 48 0 30 -3
79 -7 109 l-8 55 -5 -55 c-4 -30 -7 -151 -9 -269 l-2 -213 32 -27 c22 -19 30
-33 26 -44 -6 -15 -27 -17 -177 -17 -145 0 -172 2 -177 16 -3 9 6 27 26 46 31
30 34 43 34 143 0 188 -3 227 -18 215 -8 -7 -15 -21 -15 -31 0 -10 -5 -21 -11
-24 -5 -4 -15 -17 -20 -28 -33 -76 -97 -182 -111 -185 -12 -2 -27 19 -53 75
-20 43 -41 85 -45 93 -16 26 -50 102 -50 111 0 5 -4 9 -10 9 -6 0 -10 -67 -10
-180 l0 -179 30 -23 c32 -24 38 -43 16 -51 -8 -3 -133 -6 -279 -6 -296 -1
-308 2 -262 55 28 32 28 68 0 111 -21 32 -86 71 -137 83 -50 11 -60 2 -90 -83
-24 -70 -22 -92 7 -115 31 -25 32 -40 3 -44 -46 -6 -218 4 -218 13 0 5 20 29
45 52 25 24 45 51 45 59 0 9 7 29 15 44 8 16 15 37 15 46 0 9 4 19 9 22 5 3
12 21 15 40 4 20 13 48 21 63 8 15 15 35 15 44 0 8 4 19 9 25 4 5 23 56 42
113 24 75 30 106 21 109 -7 2 -12 16 -12 32 l0 27 148 5 c81 3 153 3 160 0 10
-3 12 -14 7 -36 -9 -45 -6 -108 6 -123 6 -7 15 -27 19 -45 9 -37 27 -88 47
-135 7 -17 13 -38 13 -47 0 -9 4 -24 9 -34 5 -9 20 -51 32 -92 26 -85 61 -140
89 -140 40 0 43 30 36 309 -6 219 -10 268 -22 278 -9 7 -14 23 -12 40 l3 28
173 3 172 2 0 -64 c0 -44 5 -69 15 -80 8 -8 15 -26 15 -40 0 -14 3 -26 6 -26
13 0 33 35 34 56 0 12 7 25 16 28 14 5 16 16 11 65 l-6 58 37 7 c20 3 88 6
150 6 61 0 112 4 112 9 0 4 -114 12 -252 16 -150 4 -258 11 -266 17 -10 9 -9
14 3 28 20 22 19 69 -2 92 -19 21 -82 25 -101 6 -18 -18 -15 -87 3 -94 8 -4
15 -14 15 -25 0 -17 -12 -18 -195 -18 -207 0 -219 2 -198 46 6 11 4 41 -6 83
l-15 65 -7 -45 c-4 -25 -8 -66 -8 -92 -1 -43 -4 -48 -27 -54 -28 -7 -174 2
-183 11 -3 3 0 15 7 26 11 17 10 33 -2 87 -8 37 -22 99 -30 138 -9 40 -16 83
-16 97 0 34 -32 72 -53 64 -15 -5 -17 -27 -19 -149 -4 -211 -3 -231 10 -236 7
-2 12 -10 12 -18 0 -11 -21 -14 -105 -14 -66 0 -105 4 -105 10 0 6 7 21 16 35
12 18 15 45 12 122 l-3 98 -40 0 -40 0 -3 -109 c-2 -66 1 -113 8 -120 5 -5 10
-16 10 -23 0 -10 -25 -13 -100 -13 -80 0 -100 3 -100 14 0 8 5 18 10 21 6 4
10 78 10 189 0 152 -3 186 -15 196 -12 10 -13 16 -4 26 8 10 37 14 99 14 96 0
119 -11 94 -44 -8 -11 -14 -32 -14 -48 0 -27 2 -28 46 -28 l46 0 -7 33 c-4 17
-12 38 -17 44 -6 7 -8 19 -5 28 5 12 39 14 209 14 208 0 236 -5 218 -38 -10
-19 1 -165 13 -178 13 -13 27 20 28 67 0 25 4 54 9 65 5 13 3 26 -7 37 -9 10
-13 24 -10 33 5 12 25 15 101 15 102 0 116 -7 96 -46 -10 -18 -11 -30 -2 -49
7 -14 12 -48 12 -75 0 -48 15 -74 30 -50 4 6 10 46 13 87 4 57 2 79 -8 90 -30
29 -7 43 70 43 80 0 102 -16 65 -47 -12 -10 -20 -30 -20 -48 0 -16 -7 -39 -15
-49 -8 -11 -15 -37 -15 -58 0 -21 -6 -55 -14 -75 -8 -21 -17 -61 -20 -90 -8
-77 14 -81 51 -8 27 53 44 103 50 142 3 18 11 38 19 44 8 6 14 24 14 39 0 15
7 34 16 41 21 17 13 88 -13 107 -13 10 -14 13 -3 12 8 -1 60 -1 115 0 106 2
101 17 -7 19 -49 1 -58 4 -64 23 -4 13 -2 24 5 26 14 5 15 32 1 32 -5 0 -10 7
-10 15 0 9 9 15 25 15 14 0 25 4 25 9 0 12 -35 20 -51 11 -8 -5 -29 -1 -49 10
l-35 18 35 14 c25 11 40 12 52 4 11 -7 24 -7 40 1 24 11 24 14 20 104 -2 52
-9 99 -14 106 -6 7 -5 14 2 18 27 17 -2 95 -37 95 -7 0 -13 9 -13 20 0 18 -5
20 -42 14 -24 -3 -48 -7 -54 -9 -6 -2 -25 8 -43 22 -26 20 -32 32 -30 57 2 17
9 39 18 49 15 19 2 24 -16 6 -13 -13 -43 -5 -43 10 0 19 32 41 59 41 40 0 53
19 39 57 -6 16 -8 42 -4 57 6 24 9 26 22 15 13 -11 18 -11 28 2 6 9 26 15 48
15 22 0 45 7 57 18 14 13 28 16 49 11 21 -4 31 -2 35 9 3 8 14 15 24 15 10 0
34 1 53 1 26 1 42 9 64 33 27 29 34 32 85 30 80 -2 90 -3 96 -14 9 -14 35 -11
51 6 9 8 25 15 37 15 11 0 42 18 69 41 26 22 52 38 58 34 5 -3 19 4 31 16 14
14 28 19 44 15 16 -4 30 0 42 13 14 15 32 19 81 19 34 0 65 -4 68 -9 7 -12 61
-12 68 0 10 16 135 10 145 -7 12 -22 60 -23 102 -1 41 20 94 25 104 9 8 -13
62 -13 70 1 4 6 13 8 20 5 7 -2 21 4 31 15 12 14 29 19 58 18 66 -2 76 0 77
19 1 11 3 9 6 -6 3 -14 17 -28 38 -36z m-2974 -1162 l66 -7 6 -54 c3 -30 3
-61 0 -69 -6 -16 -33 -19 -33 -4 0 5 -14 23 -30 40 -27 27 -36 31 -78 28 -40
-3 -47 -6 -50 -26 -3 -18 5 -26 40 -42 24 -11 50 -20 59 -20 52 -1 133 -66
146 -118 7 -31 -12 -89 -41 -120 -46 -51 -87 -63 -215 -61 -65 0 -123 4 -129
8 -16 10 -35 152 -23 164 11 11 50 -28 51 -49 1 -28 51 -57 105 -62 60 -5 95
13 95 49 0 21 -45 55 -86 64 -83 19 -154 73 -154 117 0 15 -5 18 -19 13 -14
-4 -23 1 -32 16 -19 36 -60 69 -85 69 -13 0 -24 -6 -24 -12 -1 -7 -1 -80 0
-163 1 -115 4 -155 16 -173 8 -12 12 -27 9 -32 -7 -11 -188 -14 -198 -4 -3 3
3 20 14 39 17 29 19 49 17 186 l-3 154 -25 3 c-27 3 -80 -39 -80 -63 0 -8 -7
-15 -15 -15 -20 0 -20 59 -1 105 l15 35 181 0 c136 0 182 -3 184 -12 2 -7 12
-35 22 -63 l18 -50 11 39 c12 40 54 82 90 89 34 7 107 7 176 1z m3694 -84 c-3
-5 -15 -10 -26 -10 -11 0 -17 5 -14 10 3 6 15 10 26 10 11 0 17 -4 14 -10z
m-60 -30 c-3 -5 -17 -10 -31 -10 -14 0 -22 4 -19 10 3 6 17 10 31 10 14 0 22
-4 19 -10z m-95 -29 c0 -5 -7 -11 -15 -15 -9 -3 -15 0 -15 9 0 8 7 15 15 15 8
0 15 -4 15 -9z m1400 -50 c0 -25 -17 -44 -65 -76 -29 -19 -57 -35 -64 -35 -44
0 56 118 102 119 15 1 27 -3 27 -8z m2036 -7 c51 -8 78 -40 87 -104 3 -26 13
-49 24 -57 10 -7 24 -17 30 -23 7 -6 24 -15 39 -20 31 -12 29 -20 -29 -97 -81
-106 -84 -143 -17 -214 22 -24 40 -50 40 -58 0 -24 31 -51 59 -51 14 0 32 -4
40 -9 14 -9 7 -31 -10 -31 -5 0 -27 -18 -48 -40 -28 -30 -46 -40 -69 -40 -43
0 -97 -48 -88 -78 9 -27 46 -40 60 -20 11 14 97 48 123 48 7 0 21 -16 30 -35
15 -32 15 -36 -1 -54 -22 -24 -119 -55 -150 -47 -18 4 -29 -2 -56 -35 -31 -39
-34 -40 -74 -34 -48 8 -69 18 -114 54 -86 68 -118 102 -128 135 -12 40 -4 51
48 74 24 10 27 16 22 42 -7 31 3 39 23 19 7 -7 23 -9 37 -5 19 5 25 13 28 39
3 28 6 32 33 32 24 0 31 5 33 25 2 14 8 29 13 34 16 17 10 59 -13 83 -18 19
-31 23 -82 23 -88 -1 -162 -21 -196 -53 -16 -16 -35 -25 -41 -21 -16 10 -6
100 15 122 20 23 21 52 1 52 -21 0 -35 41 -35 103 0 74 50 146 129 184 31 15
60 33 64 40 5 7 12 11 17 8 4 -3 23 2 41 10 19 8 43 13 54 10 11 -2 39 -7 61
-11z m-1721 -184 c0 -16 -85 -36 -180 -42 -76 -4 -81 16 -10 42 63 22 190 23
190 0z m-3635 -128 c0 -11 -8 -18 -21 -19 -21 -2 -21 -2 -3 17 24 24 24 24 24
2z m-1264 -18 c53 -21 74 -50 74 -101 0 -37 -6 -48 -42 -85 -24 -24 -52 -48
-63 -54 -17 -10 -14 -14 38 -47 61 -39 98 -88 117 -153 25 -85 -34 -182 -130
-217 -38 -14 -87 -17 -291 -17 -135 0 -248 3 -252 6 -3 4 5 21 18 39 l25 32 0
265 c0 252 -1 266 -20 283 -11 10 -20 29 -20 42 l0 23 254 0 c208 0 260 -3
292 -16z m4889 -7 c14 -17 54 -34 92 -41 49 -8 105 -34 98 -46 -9 -15 -45 -12
-51 5 -9 23 -64 20 -64 -3 0 -32 38 -43 130 -38 136 8 182 17 228 44 39 22 42
27 36 55 -8 40 20 60 55 38 12 -8 12 -13 3 -24 -10 -12 -4 -15 40 -20 52 -7
78 -25 78 -55 0 -8 -9 -16 -20 -19 -12 -3 -30 -23 -40 -43 -13 -26 -32 -44
-60 -56 -38 -17 -44 -24 -41 -51 1 -6 -9 -13 -21 -15 -17 -2 -24 -11 -26 -30
-2 -16 -8 -28 -13 -28 -6 0 -17 -16 -25 -37 -12 -27 -13 -45 -6 -74 6 -25 6
-41 -1 -48 -7 -7 -7 -18 1 -35 8 -18 8 -31 -1 -50 -16 -34 -33 -33 -42 2 -7
29 -52 82 -70 82 -6 0 -34 16 -61 35 -27 19 -55 35 -61 35 -7 0 -13 4 -13 9 0
6 -27 26 -60 47 -45 27 -60 43 -60 59 0 21 4 23 38 18 51 -7 80 18 59 51 -20
30 -88 75 -114 76 -12 0 -35 -12 -52 -26 -40 -33 -56 -26 -82 33 l-21 48 -14
-27 c-9 -17 -23 -28 -36 -28 -12 0 -29 -7 -39 -16 -11 -9 -19 -11 -23 -5 -4 5
1 14 11 20 10 5 29 30 43 56 18 33 30 45 42 41 11 -2 33 12 60 40 35 36 48 44
68 39 14 -3 30 -11 35 -18z m439 8 c7 -18 -19 -45 -44 -45 -10 0 -20 -5 -22
-12 -3 -7 -12 -9 -22 -5 -16 6 -14 12 18 42 40 38 61 44 70 20z m1738 -2 c22
-20 23 -33 3 -33 -12 0 -35 28 -35 44 0 11 13 6 32 -11z m-172 -21 c0 -23 -19
-42 -42 -42 -16 0 -17 3 -7 23 20 38 49 49 49 19z m10 -112 c25 -26 35 -30 83
-30 60 0 78 -12 76 -51 0 -13 -2 -53 -2 -88 -1 -38 -7 -66 -13 -68 -7 -2 -29
8 -49 22 -21 14 -42 25 -46 25 -5 0 -9 6 -9 14 0 8 -22 39 -49 68 -47 51 -49
57 -44 96 3 23 10 42 15 42 6 0 23 -13 38 -30z m-403 -77 c6 -16 -55 -56 -88
-58 -45 -4 -76 -31 -104 -89 -14 -29 -25 -58 -25 -65 0 -7 -4 -10 -9 -7 -4 3
-9 33 -9 67 -1 60 1 64 44 115 42 48 50 53 92 56 56 4 94 -4 99 -19z m-3391 3
c3 -8 26 -17 51 -21 52 -8 83 -24 83 -42 0 -17 -18 -16 -35 0 -9 9 -40 14 -91
15 -87 1 -107 11 -79 42 21 23 63 27 71 6z m4120 -82 c8 -44 -3 -104 -20 -104
-15 0 -29 101 -19 138 8 31 30 11 39 -34z m-1516 20 c0 -8 -4 -14 -10 -14 -5
0 -10 9 -10 21 0 11 5 17 10 14 6 -3 10 -13 10 -21z m-2322 4 c14 -14 16 -58
3 -58 -12 0 -41 40 -41 57 0 16 22 17 38 1z m-318 -86 c0 -13 -12 -22 -22 -16
-10 6 -1 24 13 24 5 0 9 -4 9 -8z m1622 2 c8 -7 -47 -89 -70 -106 -31 -23 -62
-70 -62 -94 0 -13 -4 -24 -10 -24 -16 0 -11 65 8 106 31 66 56 103 77 113 23
11 49 14 57 5z m203 -44 c3 -5 15 -10 27 -10 22 0 140 -59 147 -73 5 -13 51
-57 59 -57 16 0 34 -42 23 -53 -6 -6 -11 -19 -11 -28 0 -10 -19 -32 -42 -50
-24 -18 -47 -36 -52 -41 -6 -5 -1 -16 12 -28 33 -31 28 -64 -14 -98 l-36 -29
-31 28 c-17 16 -39 31 -48 34 -9 3 -19 15 -22 26 -4 14 3 23 25 35 26 13 29
20 24 45 -5 25 -1 31 25 44 58 30 31 40 -98 36 -117 -3 -121 -3 -128 19 -9 27
-8 28 51 41 97 21 136 22 171 4 26 -14 41 -16 74 -9 51 11 60 30 22 45 -15 7
-61 27 -102 46 -65 31 -76 33 -102 22 -23 -9 -36 -9 -54 -1 -29 14 -33 32 -6
32 10 0 24 7 31 15 14 17 46 20 55 5z m-1596 -66 c46 -10 38 -24 -14 -24 -42
0 -54 7 -38 23 8 9 13 9 52 1z m2919 -140 c6 -87 21 -104 57 -64 18 20 19 20
36 2 23 -25 30 -97 9 -97 -8 0 -15 8 -15 18 0 23 -40 46 -81 47 -31 0 -31 1
-37 62 -3 34 -3 66 0 71 11 19 28 -2 31 -39z m-2927 20 c10 -13 10 -17 -2 -25
-12 -7 -46 -4 -58 7 -2 2 -1 10 2 19 8 20 41 19 58 -1z m1427 -16 c-3 -7 -15
-14 -29 -16 -23 -2 -23 -2 -5 13 24 18 39 20 34 3z m2279 -19 c4 -18 -139
-109 -170 -109 -13 0 -31 6 -41 13 -18 13 -18 14 0 36 11 12 39 31 64 42 25
11 59 26 75 33 33 15 69 7 72 -15z m-3793 -52 c10 -8 24 -30 31 -50 12 -34 11
-37 -9 -43 -11 -3 -28 -13 -37 -20 -20 -18 -49 -8 -49 18 0 37 22 108 34 108
7 0 20 -6 30 -13z m3816 -116 c0 -11 -12 -27 -27 -35 -16 -8 -43 -23 -60 -32
-26 -14 -31 -22 -27 -41 6 -21 3 -23 -35 -23 -45 0 -51 8 -22 34 11 10 25 31
32 47 22 54 139 95 139 50z m-5630 -26 c12 -14 15 -14 31 1 25 23 63 15 67
-15 2 -15 -3 -28 -12 -33 -20 -11 -20 -32 -1 -48 8 -7 15 -23 15 -36 0 -19 -5
-24 -25 -24 -14 0 -33 8 -42 18 -17 16 -19 16 -36 -1 -24 -24 -61 -18 -65 11
-2 13 3 25 12 28 20 8 20 33 0 55 -22 24 -10 59 20 59 13 0 29 -7 36 -15z
m-854 -3 c6 -4 15 -18 19 -31 l7 -23 28 31 c55 59 93 35 88 -56 l-3 -58 -62
-2 c-56 -1 -63 1 -69 20 l-7 22 -10 -22 c-11 -25 -36 -30 -55 -11 -7 7 -12 33
-12 59 0 38 5 51 22 63 25 18 37 19 54 8z m498 -8 c11 -28 6 -110 -6 -127 -9
-11 -21 -15 -35 -11 -21 6 -23 12 -23 73 0 37 3 71 7 74 12 13 51 7 57 -9z
m-1314 -14 c24 -24 25 -34 6 -49 -7 -6 -11 -22 -9 -35 7 -33 -14 -42 -41 -17
-28 26 -40 26 -57 0 -9 -13 -20 -18 -31 -14 -14 6 -18 19 -18 65 0 66 2 68 78
69 39 1 57 -4 72 -19z m444 5 c3 -8 1 -27 -4 -41 -7 -19 -7 -31 1 -40 6 -8 9
-21 5 -29 -4 -13 -19 -15 -68 -13 l-63 3 -3 54 c-2 29 -1 60 2 67 8 21 122 19
130 -1z m1566 -15 c-19 -13 -30 -13 -30 0 0 6 10 10 23 10 18 0 19 -2 7 -10z
m110 -121 c0 -5 -7 -9 -15 -9 -15 0 -20 12 -9 23 8 8 24 -1 24 -14z m1562 -6
c13 -15 16 -43 14 -148 -1 -79 -5 -129 -11 -128 -60 9 -60 9 -63 -24 -4 -37
13 -44 33 -16 12 17 14 17 34 -1 17 -16 21 -31 21 -87 0 -38 -6 -88 -14 -111
-8 -24 -17 -65 -21 -93 -3 -27 -8 -58 -11 -67 -8 -26 -47 -22 -73 6 -13 14
-35 26 -50 28 -27 3 -28 8 -17 75 6 39 21 70 49 101 18 19 19 26 9 43 -24 38
11 189 43 189 21 0 19 23 -5 43 -22 19 -27 66 -8 85 7 7 11 28 10 48 -5 70 24
97 60 57z m-1566 -59 c-3 -9 -6 -25 -6 -37 0 -13 -3 -17 -8 -11 -4 6 -16 16
-27 22 -20 11 -20 12 3 18 12 3 22 10 22 15 0 5 5 9 11 9 6 0 8 -7 5 -16z
m3708 -42 c9 -15 -25 -54 -44 -49 -12 3 -24 -8 -41 -39 -32 -60 -76 -59 -53 1
4 9 24 25 45 36 22 11 45 28 51 39 13 21 33 26 42 12z m-2314 -12 c0 -5 -7
-10 -15 -10 -8 0 -15 5 -15 10 0 6 7 10 15 10 8 0 15 -4 15 -10z m-2678 -37
c4 -38 26 -40 39 -4 7 20 18 31 30 31 10 0 19 -4 19 -10 0 -14 27 -13 32 2 7
21 38 0 38 -27 0 -35 26 -32 39 5 9 27 14 30 56 30 l46 0 -3 -57 -3 -58 -83 0
c-54 0 -87 4 -94 12 -6 8 -16 9 -27 4 -9 -5 -51 -11 -93 -15 -70 -6 -78 -5
-87 13 -12 22 -14 61 -5 85 4 11 19 16 49 16 40 0 44 -2 47 -27z m1318 -12 c0
-12 -39 -25 -48 -16 -7 7 17 25 36 25 6 0 12 -4 12 -9z m-1480 -26 c0 -26 -26
-35 -46 -15 -8 8 -15 6 -24 -5 -19 -23 -40 -18 -40 8 0 33 7 37 62 37 45 0 48
-2 48 -25z m6445 -29 c53 -41 99 -122 105 -186 4 -48 8 -56 34 -69 43 -20 102
-25 137 -10 31 12 33 12 63 -24 30 -36 32 -36 60 -22 32 17 106 20 106 5 0 -5
-14 -10 -30 -10 -17 0 -45 -8 -63 -17 -28 -16 -61 -18 -242 -18 -148 0 -223 4
-255 14 -63 18 -109 41 -144 70 -32 27 -26 29 114 45 25 3 61 7 80 8 24 2 36
8 38 21 5 25 -26 57 -54 57 -24 0 -61 39 -70 76 -3 12 2 36 10 53 21 39 65 42
111 7z m649 -74 c25 -24 46 -51 46 -61 0 -21 -100 -131 -119 -131 -14 0 -15
27 -1 35 8 5 8 11 0 20 -9 11 -5 137 6 173 6 19 16 13 68 -36z m-4297 26 c12
-20 10 -118 -3 -118 -6 0 -19 15 -29 34 -16 29 -17 38 -5 65 13 33 24 39 37
19z m-357 -40 c0 -13 -7 -41 -15 -63 -22 -62 -18 -86 20 -129 19 -21 35 -42
35 -46 0 -8 65 -50 76 -50 3 0 3 14 -1 31 -8 33 12 119 29 131 24 17 53 6 84
-32 17 -21 32 -43 32 -49 0 -6 3 -11 8 -11 4 0 8 -21 9 -48 2 -34 8 -52 24
-64 24 -21 50 -23 66 -7 20 20 35 0 18 -24 -8 -12 -15 -30 -15 -40 0 -10 -12
-34 -27 -54 -29 -37 -47 -80 -65 -148 -5 -22 -16 -53 -23 -70 -25 -59 -45
-126 -45 -155 0 -25 -7 -33 -51 -54 -28 -14 -60 -33 -72 -41 -12 -8 -30 -15
-40 -15 -16 0 -18 5 -14 29 3 16 1 33 -6 40 -6 6 -10 27 -8 46 2 30 -1 36 -23
45 -29 11 -32 20 -13 39 10 10 8 15 -10 29 -11 9 -24 33 -28 52 -4 19 -25 68
-46 108 -53 102 -58 124 -49 246 6 84 12 112 27 129 10 12 30 49 43 82 37 94
80 144 80 93z m1750 -3 c0 -3 -13 -29 -29 -58 -16 -28 -27 -57 -24 -64 6 -18
-29 -32 -54 -22 -26 10 -27 12 -12 42 26 50 119 130 119 102z m-3186 -61 c6
-15 8 -15 24 -2 11 10 30 14 53 11 31 -4 38 -10 47 -36 10 -31 10 -31 11 -6 1
15 7 31 14 37 7 5 83 9 187 8 l175 -1 0 -65 0 -65 -42 -3 c-33 -2 -44 1 -56
18 -16 23 -35 22 -86 -3 -16 -8 -26 -8 -28 -2 -11 33 -20 37 -44 22 -13 -8
-54 -18 -90 -22 -63 -6 -68 -5 -87 19 -25 33 -38 33 -46 1 -8 -33 -34 -32 -42
2 -4 15 -13 34 -21 41 -14 14 -17 44 -6 55 12 12 31 7 37 -9z m-1832 -8 c5 -8
13 -7 28 2 29 18 48 15 61 -10 l12 -22 15 22 c8 12 20 22 28 22 19 0 36 -36
32 -68 -2 -22 -8 -27 -30 -27 -15 -1 -30 -4 -34 -8 -4 -3 -14 -2 -23 3 -10 5
-23 5 -31 0 -9 -5 -20 -5 -28 2 -9 8 -19 7 -38 -2 -36 -20 -77 -3 -84 34 -7
41 -30 46 -30 7 0 -16 -5 -33 -10 -36 -15 -9 -38 12 -42 37 -4 28 -28 36 -28
10 0 -56 -37 -73 -42 -20 -4 43 -26 48 -30 6 -3 -35 -25 -45 -38 -18 -4 8 -12
25 -19 38 -6 13 -9 27 -6 32 8 14 328 9 337 -4z m642 8 c40 -6 46 -10 46 -30
0 -38 18 -37 26 1 l6 35 59 0 c32 0 61 -4 64 -10 4 -6 13 -5 25 2 15 10 22 10
31 1 7 -7 24 -9 41 -6 19 4 35 0 47 -11 18 -17 20 -16 26 3 10 32 42 26 65
-11 31 -52 27 -69 -17 -68 -21 0 -55 -3 -76 -6 -28 -5 -43 -2 -56 10 -16 15
-19 15 -31 1 -9 -11 -22 -14 -44 -10 -17 3 -42 6 -56 6 -14 0 -35 -1 -47 -1
-12 0 -25 -5 -28 -10 -9 -15 -36 -12 -56 6 -16 14 -23 15 -48 5 -68 -29 -121
13 -93 74 13 27 31 30 116 19z m594 -6 c8 -8 15 -8 25 0 16 14 147 14 147 1 0
-5 7 -9 15 -9 8 0 15 5 15 10 0 13 27 13 34 1 9 -14 -37 -100 -52 -101 -8 0
-16 9 -19 20 -5 19 -6 18 -41 -5 -41 -28 -54 -30 -82 -13 -15 10 -27 10 -54 0
-68 -25 -108 11 -90 82 5 23 11 26 48 26 23 0 47 -5 54 -12z m3082 -53 c44 16
50 12 50 -29 0 -48 -24 -103 -64 -152 -41 -48 -98 -84 -104 -65 -2 6 -8 11
-14 11 -6 0 -7 -20 -3 -53 9 -72 -12 -92 -93 -89 -31 1 -60 6 -64 10 -4 4 -12
31 -17 59 -6 29 -17 67 -25 87 -13 32 -13 35 8 55 12 12 32 21 43 21 24 0 123
70 172 123 31 32 36 34 54 22 16 -11 25 -11 57 0z m644 -84 c16 -18 15 -21
-33 -71 -28 -29 -51 -56 -51 -60 0 -3 -15 -14 -34 -23 -19 -9 -37 -25 -41 -36
-10 -34 -50 -27 -75 14 -20 32 -20 35 -4 60 14 22 21 25 51 19 31 -6 37 -3 69
35 20 22 42 41 49 41 8 0 19 9 25 20 13 25 22 25 44 1z m-1045 -53 c33 -87 38
-129 21 -172 -5 -14 -10 -71 -11 -127 -1 -55 -5 -113 -9 -127 l-7 -27 -13 30
c-7 17 -12 44 -11 60 7 143 5 201 -8 270 -8 45 -12 89 -8 98 9 24 36 21 46 -5z
m751 -52 c0 -7 -15 -29 -34 -49 l-34 -36 -6 25 c-6 23 4 53 26 81 12 15 48 -1
48 -21z m1960 -7 c0 -20 -15 -26 -25 -9 -9 15 3 43 15 35 5 -3 10 -15 10 -26z
m178 -46 c-2 -14 -13 -18 -42 -18 -49 0 -60 22 -14 28 18 2 39 5 46 5 8 1 12
-5 10 -15z m-3093 -35 c7 -35 -27 -128 -45 -128 -15 0 -12 38 6 72 10 18 14
42 10 59 -4 21 -2 29 9 29 8 0 17 -14 20 -32z m815 8 c0 -7 -12 -21 -27 -31
-16 -9 -61 -51 -101 -92 -40 -41 -76 -72 -79 -69 -8 8 58 86 107 127 23 19 51
44 63 57 24 25 37 28 37 8z m1817 -36 c21 -25 32 -25 49 -2 20 27 38 2 18 -26
-16 -23 -48 -29 -59 -12 -4 7 -12 7 -25 0 -45 -24 -74 6 -40 40 25 25 36 25
57 0z m-2524 -25 c-1 -17 -2 -79 -3 -140 -1 -181 -41 -330 -106 -401 -16 -18
-37 -44 -47 -58 -10 -14 -25 -26 -34 -26 -25 0 -79 46 -93 80 -11 27 -11 33 7
53 11 12 26 40 33 61 20 63 49 122 65 136 9 8 15 29 15 56 0 23 4 46 10 49 11
7 80 146 80 161 0 5 10 22 22 37 29 36 54 32 51 -8z m3175 -17 c25 -19 44 -43
47 -60 4 -17 18 -34 36 -43 16 -9 29 -17 29 -19 0 -3 3 -11 6 -20 8 -20 -10
-21 -29 -1 -8 8 -37 27 -63 43 -60 35 -124 91 -124 108 0 13 15 22 41 23 8 1
34 -13 57 -31z m-2285 -14 c7 -7 -44 -114 -55 -114 -4 0 -8 6 -8 14 0 26 -20
28 -30 4 -21 -45 -37 -68 -64 -89 l-27 -21 -24 22 -23 22 20 34 c41 69 183
155 211 128z m2113 -56 c33 -32 42 -48 26 -48 -15 0 -91 63 -86 72 9 15 25 8
60 -24z m-2601 4 c-6 -4 -25 -29 -43 -56 -18 -27 -32 -42 -32 -32 0 32 50 96
74 96 8 0 8 -3 1 -8z m2575 -263 c0 -32 -18 -48 -31 -28 -11 17 -12 73 -2 83
12 11 33 -25 33 -55z m-2700 7 c0 -25 -4 -48 -10 -51 -6 -4 -10 13 -10 44 0
28 5 51 10 51 6 0 10 -20 10 -44z m2838 -2 c46 -27 64 -45 72 -69 7 -22 19
-35 35 -39 16 -4 25 -13 25 -27 0 -36 -27 -32 -70 10 -24 23 -48 41 -55 41
-21 0 -27 -32 -9 -51 17 -19 13 -70 -11 -140 -7 -20 -16 -63 -20 -95 -8 -60
-23 -98 -58 -145 -14 -20 -18 -39 -16 -72 4 -39 1 -47 -17 -56 -19 -8 -23 -6
-28 21 -5 28 12 124 36 193 22 65 31 123 29 195 0 41 4 95 11 119 10 38 9 45
-5 53 -19 10 -22 50 -7 79 14 25 17 25 88 -17z m-3029 -11 c16 -57 14 -188 -4
-226 -52 -111 -87 -142 -93 -82 -7 57 59 345 79 345 4 0 13 -17 18 -37z m2231
25 c-1 -33 -89 -102 -116 -91 -8 3 -14 16 -14 30 0 21 3 23 14 14 11 -9 21 -4
49 24 35 35 67 46 67 23z m-1623 -53 c-10 -7 -17 -15 -17 -18 0 -3 -13 -25
-29 -49 -25 -38 -31 -64 -51 -210 -12 -92 -19 -171 -16 -177 4 -6 -10 -51 -31
-101 -27 -64 -40 -85 -45 -72 -11 27 -9 77 3 89 6 6 15 62 20 125 5 62 13 129
19 148 5 19 10 56 10 81 0 29 6 51 15 59 8 7 15 18 15 24 0 6 14 22 30 36 17
14 30 29 30 34 0 17 42 56 53 49 6 -4 3 -11 -6 -18z m1658 -109 c4 -41 4 -79
1 -85 -12 -19 -25 -12 -28 17 -4 32 -22 32 -26 0 -5 -35 -17 -41 -37 -19 -16
19 -17 23 -1 55 9 19 16 38 16 44 0 16 41 62 55 62 9 0 15 -22 20 -74z m608
13 c-3 -10 -9 -19 -14 -19 -11 0 -12 44 -2 53 10 11 21 -13 16 -34z m-196 -46
c-3 -10 -5 -2 -5 17 0 19 2 27 5 18 2 -10 2 -26 0 -35z m83 32 c-7 -8 -17 -15
-22 -15 -6 0 -5 7 2 15 7 8 17 15 22 15 6 0 5 -7 -2 -15z m-770 -4 c0 -6 -8
-16 -18 -23 -10 -7 -31 -30 -46 -50 -16 -21 -34 -38 -42 -38 -22 0 -36 -36
-19 -50 38 -31 -1 -79 -48 -61 -14 5 -27 15 -29 22 -6 18 -28 1 -28 -21 0 -11
11 -30 25 -44 l26 -26 -20 -37 c-29 -56 -47 -77 -59 -69 -7 4 -7 17 -1 42 9
32 8 38 -16 60 -30 28 -41 30 -49 8 -10 -25 -7 -34 9 -34 26 0 17 -53 -16 -93
-17 -20 -34 -37 -38 -37 -5 0 -7 19 -4 43 3 37 0 44 -23 61 l-27 19 -23 -28
c-25 -32 -23 -45 7 -45 10 0 19 -3 19 -7 -1 -27 -100 -105 -100 -80 0 8 6 20
14 26 20 17 -5 85 -33 89 -25 4 -30 -25 -6 -34 18 -7 20 -43 3 -48 -92 -24
-99 -24 -114 0 -9 13 -26 26 -37 30 -46 14 -49 24 -16 65 34 43 33 66 -3 71
-28 4 -55 54 -41 77 16 25 32 24 44 -3 7 -14 24 -29 40 -35 15 -5 35 -21 44
-35 10 -14 25 -26 35 -26 10 0 23 -7 30 -15 16 -19 62 -12 102 16 14 11 32 19
38 19 17 0 93 48 146 93 25 20 52 37 60 37 8 0 14 4 14 8 0 5 14 22 31 38 17
16 47 46 67 67 19 20 41 37 49 37 7 0 13 5 13 10 0 6 9 10 20 10 11 0 20 -4
20 -9z m849 -86 c-7 -22 -12 -47 -11 -55 1 -8 -4 -4 -12 9 -15 27 -11 97 7
119 19 24 30 -27 16 -73z m-415 19 c6 -22 9 -24 22 -13 11 9 18 9 26 1 8 -8 4
-22 -17 -52 -36 -52 -42 -56 -66 -34 -22 20 -23 33 -7 85 13 45 33 51 42 13z
m-1800 -116 c-13 -24 -19 -28 -22 -16 -2 9 4 30 12 47 9 16 17 43 18 58 1 17
3 12 5 -14 3 -27 -2 -54 -13 -75z m2066 -9 c0 -20 -4 -29 -12 -27 -15 5 -22
33 -14 54 9 24 26 6 26 -27z m-1485 -83 c16 -29 17 -39 7 -62 -11 -24 -17 -26
-49 -21 -41 7 -53 20 -53 60 0 23 3 27 19 22 14 -4 21 0 26 15 9 30 29 24 50
-14z m1503 -6 c2 -19 -4 -44 -12 -55 -14 -20 -15 -20 -40 4 -30 29 -32 38 -10
69 25 36 58 26 62 -18z m-1818 5 c0 -8 -4 -17 -10 -20 -6 -4 -10 5 -10 20 0
15 4 24 10 20 6 -3 10 -12 10 -20z m2568 -5 c13 -16 29 -30 37 -30 18 0 67
-45 58 -53 -11 -12 -23 -8 -23 8 0 18 -5 18 -30 5 -13 -7 -26 -7 -37 -1 -10 5
-26 12 -35 15 -13 4 -18 16 -18 46 0 49 17 52 48 10z m-2458 -7 c0 -9 -5 -33
-11 -52 -7 -20 -13 -42 -15 -48 -5 -18 -34 -4 -34 15 0 22 40 102 51 102 5 0
9 -8 9 -17z m-418 -87 c-9 -18 -11 -16 -11 19 0 33 1 37 10 21 8 -12 8 -25 1
-40z m-203 -9 c0 -18 -4 -41 -8 -51 -12 -30 -21 3 -14 53 6 47 23 46 22 -2z
m2001 -139 c-1 -43 -3 -49 -11 -35 -10 17 -4 87 6 87 3 0 5 -24 5 -52z"/>
<path d="M2244 4124 c3 -9 6 -18 6 -20 0 -3 5 -2 10 1 16 10 12 35 -6 35 -11
0 -14 -5 -10 -16z"/>
<path d="M6906 3994 c-9 -22 1 -34 29 -34 29 0 41 16 25 35 -16 20 -46 19 -54
-1z"/>
<path d="M2277 3974 c-8 -8 1 -24 14 -24 5 0 9 7 9 15 0 15 -12 20 -23 9z"/>
<path d="M7216 3671 c-3 -5 1 -11 9 -15 15 -6 29 7 18 18 -9 9 -21 8 -27 -3z"/>
<path d="M7464 3325 c8 -9 13 -22 10 -30 -4 -8 -2 -15 4 -15 19 0 21 28 3 44
-22 20 -37 21 -17 1z"/>
<path d="M2471 3231 c-1 -24 2 -32 9 -25 7 7 7 19 1 35 -9 23 -10 22 -10 -10z"/>
<path d="M2572 3180 c0 -19 2 -27 5 -17 2 9 2 25 0 35 -3 9 -5 1 -5 -18z"/>
<path d="M2495 3181 c-4 -7 -4 -24 0 -39 7 -26 8 -26 17 -6 12 25 -4 66 -17
45z"/>
<path d="M2280 3165 c0 -21 17 -45 32 -45 13 0 9 13 -12 40 -18 23 -20 24 -20
5z"/>
<path d="M2560 2971 c0 -22 16 -36 24 -22 8 12 -3 41 -15 41 -5 0 -9 -9 -9
-19z"/>
<path d="M5572 2861 c4 -13 18 -16 19 -4 0 4 -5 9 -11 12 -7 2 -11 -2 -8 -8z"/>
<path d="M1657 2614 c-4 -4 -7 -16 -7 -27 0 -10 -7 -35 -17 -54 -18 -39 -9
-53 34 -53 12 0 25 -4 28 -10 3 -5 10 -10 16 -10 12 0 12 53 -1 66 -5 5 -13
27 -17 48 -8 38 -22 54 -36 40z"/>
<path d="M6912 1195 c-23 -29 -29 -55 -12 -55 12 0 42 58 38 72 -2 6 -14 -1
-26 -17z"/>
<path d="M5966 1135 c-4 -12 -15 -14 -46 -9 -26 4 -40 3 -40 -4 0 -18 17 -23
59 -16 38 6 60 27 42 39 -5 3 -12 -2 -15 -10z"/>
<path d="M6652 1088 c7 -19 38 -22 38 -4 0 10 -9 16 -21 16 -12 0 -19 -5 -17
-12z"/>
<path d="M5935 1040 c-3 -10 0 -32 8 -47 8 -15 17 -45 21 -66 11 -60 61 -172
96 -216 50 -64 109 -94 183 -93 60 0 93 10 162 50 35 20 215 197 215 212 0 5
13 19 29 31 17 12 27 28 24 35 -9 25 -40 15 -68 -21 -15 -20 -34 -35 -43 -33
-10 1 -30 -10 -45 -24 -23 -22 -32 -25 -46 -16 -14 9 -22 7 -40 -11 -17 -17
-29 -20 -59 -15 -28 4 -41 2 -51 -10 -17 -20 -47 -21 -55 -1 -3 10 -19 15 -46
15 -27 0 -43 5 -46 15 -4 8 -17 15 -29 15 -37 0 -55 11 -55 32 0 12 -10 23
-29 29 -18 6 -32 20 -35 34 -3 13 -15 27 -27 30 -11 4 -27 22 -35 41 -16 39
-20 41 -29 14z"/>
<path d="M6592 1028 c6 -18 28 -21 28 -4 0 9 -7 16 -16 16 -9 0 -14 -5 -12
-12z"/>
<path d="M6780 1031 c0 -11 26 -22 34 -14 3 3 3 10 0 14 -7 12 -34 11 -34 0z"/>
<path d="M6696 881 c-3 -5 1 -12 10 -15 20 -8 29 -1 19 13 -8 13 -22 14 -29 2z"/>
<path d="M6510 671 c0 -10 30 -24 37 -17 3 3 2 9 -2 15 -8 13 -35 15 -35 2z"/>
<path d="M6440 605 c0 -9 5 -15 11 -13 6 2 11 8 11 13 0 5 -5 11 -11 13 -6 2
-11 -4 -11 -13z"/>
<path d="M6355 580 c-4 -6 -3 -16 3 -22 6 -6 12 -6 17 2 4 6 3 16 -3 22 -6 6
-12 6 -17 -2z"/>
<path d="M6266 553 c-11 -11 -6 -23 9 -23 8 0 15 4 15 9 0 13 -16 22 -24 14z"/>
<path d="M993 2743 c-14 -5 -19 -144 -7 -156 10 -10 103 44 125 71 24 31 24
47 -1 72 -19 19 -84 27 -117 13z"/>
<path d="M1013 2495 l-33 -14 0 -121 c0 -118 1 -121 24 -132 32 -14 108 8 139
40 18 20 22 35 22 91 0 61 -3 71 -33 109 -37 46 -62 52 -119 27z"/>
<path d="M900 1962 c0 -14 11 -21 26 -15 8 3 11 9 8 14 -7 11 -34 12 -34 1z"/>
<path d="M4584 1348 c-3 -13 -13 -31 -21 -40 -17 -19 -14 -59 5 -66 7 -2 15 9
18 28 5 21 15 35 30 41 25 9 28 17 18 43 -9 24 -42 19 -50 -6z"/>
<path d="M780 1435 c0 -30 15 -33 29 -6 8 15 7 20 -5 25 -23 9 -24 8 -24 -19z"/>
<path d="M2130 1435 c0 -15 4 -24 10 -20 6 3 10 12 10 20 0 8 -4 17 -10 20 -6
4 -10 -5 -10 -20z"/>
<path d="M6105 240 c3 -5 13 -10 21 -10 8 0 14 5 14 10 0 6 -9 10 -21 10 -11
0 -17 -4 -14 -10z"/>
<path d="M6086 193 c-11 -11 -6 -23 9 -23 8 0 15 4 15 9 0 13 -16 22 -24 14z"/>
</g>
</svg>
